<mxfile host="app.diagrams.net" modified="2024-04-24T11:08:25.623Z" agent="Mozilla/5.0 (Windows NT 10.0; Win64; x64) AppleWebKit/537.36 (KHTML, like Gecko) Chrome/123.0.0.0 Safari/537.36" etag="9nf73510XWm412n6-rU3" version="24.2.3" type="github">
  <diagram id="prtHgNgQTEPvFCAcTncT" name="Page-1">
    <mxGraphModel dx="1050" dy="522" grid="1" gridSize="10" guides="1" tooltips="1" connect="1" arrows="1" fold="1" page="1" pageScale="1" pageWidth="827" pageHeight="1169" math="0" shadow="0">
      <root>
        <mxCell id="0" />
        <mxCell id="1" parent="0" />
        <mxCell id="dNxyNK7c78bLwvsdeMH5-19" value="DDX" style="swimlane;html=1;childLayout=stackLayout;resizeParent=1;resizeParentMax=0;horizontal=0;startSize=20;horizontalStack=0;" parent="1" vertex="1">
          <mxGeometry x="120" y="120" width="1030" height="1190" as="geometry" />
        </mxCell>
        <mxCell id="dNxyNK7c78bLwvsdeMH5-20" value="User" style="swimlane;html=1;startSize=20;horizontal=0;" parent="dNxyNK7c78bLwvsdeMH5-19" vertex="1">
          <mxGeometry x="20" width="1010" height="120" as="geometry" />
        </mxCell>
        <mxCell id="dNxyNK7c78bLwvsdeMH5-25" value="" style="edgeStyle=orthogonalEdgeStyle;rounded=0;orthogonalLoop=1;jettySize=auto;html=1;" parent="dNxyNK7c78bLwvsdeMH5-20" source="dNxyNK7c78bLwvsdeMH5-23" target="dNxyNK7c78bLwvsdeMH5-24" edge="1">
          <mxGeometry relative="1" as="geometry" />
        </mxCell>
        <mxCell id="dNxyNK7c78bLwvsdeMH5-23" value="" style="ellipse;whiteSpace=wrap;html=1;" parent="dNxyNK7c78bLwvsdeMH5-20" vertex="1">
          <mxGeometry x="40" y="45" width="20" height="30" as="geometry" />
        </mxCell>
        <mxCell id="dNxyNK7c78bLwvsdeMH5-24" value="Prepare export query, validate the output with taxanomy" style="rounded=0;whiteSpace=wrap;html=1;fontFamily=Helvetica;fontSize=12;fontColor=#000000;align=center;" parent="dNxyNK7c78bLwvsdeMH5-20" vertex="1">
          <mxGeometry x="90" y="30" width="110" height="60" as="geometry" />
        </mxCell>
        <mxCell id="dNxyNK7c78bLwvsdeMH5-30" value="Insert Query into Metadata table" style="rounded=0;whiteSpace=wrap;html=1;fontFamily=Helvetica;fontSize=12;fontColor=#000000;align=center;" parent="dNxyNK7c78bLwvsdeMH5-20" vertex="1">
          <mxGeometry x="240" y="30" width="80" height="60" as="geometry" />
        </mxCell>
        <mxCell id="5WoiTZJnZPbIstmlEn6n-13" value="" style="endArrow=classic;html=1;rounded=0;exitX=1;exitY=0.5;exitDx=0;exitDy=0;entryX=0;entryY=0.5;entryDx=0;entryDy=0;" edge="1" parent="dNxyNK7c78bLwvsdeMH5-20" source="dNxyNK7c78bLwvsdeMH5-24" target="dNxyNK7c78bLwvsdeMH5-30">
          <mxGeometry width="50" height="50" relative="1" as="geometry">
            <mxPoint x="250" y="130" as="sourcePoint" />
            <mxPoint x="240" y="70" as="targetPoint" />
          </mxGeometry>
        </mxCell>
        <mxCell id="5WoiTZJnZPbIstmlEn6n-19" value="Trigger Export with required parameter" style="rounded=0;whiteSpace=wrap;html=1;fontFamily=Helvetica;fontSize=12;fontColor=#000000;align=center;" vertex="1" parent="dNxyNK7c78bLwvsdeMH5-20">
          <mxGeometry x="350" y="30" width="80" height="60" as="geometry" />
        </mxCell>
        <mxCell id="5WoiTZJnZPbIstmlEn6n-20" value="" style="endArrow=classic;startArrow=classic;html=1;rounded=0;exitX=0.5;exitY=0;exitDx=0;exitDy=0;exitPerimeter=0;" edge="1" parent="dNxyNK7c78bLwvsdeMH5-20" source="5WoiTZJnZPbIstmlEn6n-14">
          <mxGeometry width="50" height="50" relative="1" as="geometry">
            <mxPoint x="230" y="140" as="sourcePoint" />
            <mxPoint x="280" y="90" as="targetPoint" />
          </mxGeometry>
        </mxCell>
        <mxCell id="5WoiTZJnZPbIstmlEn6n-22" value="" style="endArrow=classic;html=1;rounded=0;entryX=0;entryY=0.5;entryDx=0;entryDy=0;" edge="1" parent="dNxyNK7c78bLwvsdeMH5-20">
          <mxGeometry width="50" height="50" relative="1" as="geometry">
            <mxPoint x="320" y="60" as="sourcePoint" />
            <mxPoint x="350" y="59.5" as="targetPoint" />
          </mxGeometry>
        </mxCell>
        <mxCell id="5WoiTZJnZPbIstmlEn6n-103" style="rounded=0;orthogonalLoop=1;jettySize=auto;html=1;exitX=1;exitY=0.5;exitDx=0;exitDy=0;" edge="1" parent="dNxyNK7c78bLwvsdeMH5-20" source="5WoiTZJnZPbIstmlEn6n-86" target="5WoiTZJnZPbIstmlEn6n-100">
          <mxGeometry relative="1" as="geometry" />
        </mxCell>
        <mxCell id="5WoiTZJnZPbIstmlEn6n-86" value="Receive Email with Results" style="rounded=0;whiteSpace=wrap;html=1;fontFamily=Helvetica;fontSize=12;fontColor=#000000;align=center;" vertex="1" parent="dNxyNK7c78bLwvsdeMH5-20">
          <mxGeometry x="770" y="30" width="80" height="60" as="geometry" />
        </mxCell>
        <mxCell id="5WoiTZJnZPbIstmlEn6n-100" value="" style="ellipse;whiteSpace=wrap;html=1;" vertex="1" parent="dNxyNK7c78bLwvsdeMH5-20">
          <mxGeometry x="920" y="45" width="20" height="30" as="geometry" />
        </mxCell>
        <mxCell id="dNxyNK7c78bLwvsdeMH5-21" value="Metadata Table" style="swimlane;html=1;startSize=20;horizontal=0;" parent="dNxyNK7c78bLwvsdeMH5-19" vertex="1">
          <mxGeometry x="20" y="120" width="1010" height="120" as="geometry" />
        </mxCell>
        <mxCell id="5WoiTZJnZPbIstmlEn6n-14" value="Metadata&amp;nbsp;&lt;div&gt;table&amp;nbsp;&amp;nbsp;&lt;/div&gt;" style="strokeWidth=2;html=1;shape=mxgraph.flowchart.direct_data;whiteSpace=wrap;" vertex="1" parent="dNxyNK7c78bLwvsdeMH5-21">
          <mxGeometry x="230" y="20" width="100" height="60" as="geometry" />
        </mxCell>
        <mxCell id="5WoiTZJnZPbIstmlEn6n-21" value="" style="edgeStyle=orthogonalEdgeStyle;elbow=horizontal;endArrow=classic;html=1;rounded=0;endSize=8;startSize=8;exitX=0.5;exitY=1;exitDx=0;exitDy=0;entryX=0.5;entryY=0;entryDx=0;entryDy=0;" edge="1" parent="dNxyNK7c78bLwvsdeMH5-19" source="5WoiTZJnZPbIstmlEn6n-19" target="5WoiTZJnZPbIstmlEn6n-68">
          <mxGeometry width="50" height="50" relative="1" as="geometry">
            <mxPoint x="430" y="170" as="sourcePoint" />
            <mxPoint x="310" y="260" as="targetPoint" />
            <Array as="points">
              <mxPoint x="410" y="220" />
              <mxPoint x="310" y="220" />
            </Array>
          </mxGeometry>
        </mxCell>
        <mxCell id="5WoiTZJnZPbIstmlEn6n-33" style="edgeStyle=orthogonalEdgeStyle;rounded=0;orthogonalLoop=1;jettySize=auto;html=1;entryX=0.5;entryY=1;entryDx=0;entryDy=0;entryPerimeter=0;startArrow=block;startFill=1;" edge="1" parent="dNxyNK7c78bLwvsdeMH5-19" source="5WoiTZJnZPbIstmlEn6n-24" target="5WoiTZJnZPbIstmlEn6n-14">
          <mxGeometry relative="1" as="geometry">
            <Array as="points">
              <mxPoint x="210" y="390" />
              <mxPoint x="210" y="220" />
              <mxPoint x="300" y="220" />
            </Array>
          </mxGeometry>
        </mxCell>
        <mxCell id="5WoiTZJnZPbIstmlEn6n-85" style="edgeStyle=orthogonalEdgeStyle;rounded=0;orthogonalLoop=1;jettySize=auto;html=1;exitX=1;exitY=0.5;exitDx=0;exitDy=0;entryX=0.5;entryY=1;entryDx=0;entryDy=0;" edge="1" parent="dNxyNK7c78bLwvsdeMH5-19" source="5WoiTZJnZPbIstmlEn6n-65" target="5WoiTZJnZPbIstmlEn6n-86">
          <mxGeometry relative="1" as="geometry">
            <mxPoint x="710" y="80" as="targetPoint" />
            <Array as="points">
              <mxPoint x="830" y="790" />
            </Array>
          </mxGeometry>
        </mxCell>
        <mxCell id="dNxyNK7c78bLwvsdeMH5-22" value="Extract Job" style="swimlane;html=1;startSize=20;horizontal=0;" parent="dNxyNK7c78bLwvsdeMH5-19" vertex="1">
          <mxGeometry x="20" y="240" width="1010" height="950" as="geometry" />
        </mxCell>
        <mxCell id="5WoiTZJnZPbIstmlEn6n-32" style="edgeStyle=orthogonalEdgeStyle;rounded=0;orthogonalLoop=1;jettySize=auto;html=1;entryX=0.5;entryY=0;entryDx=0;entryDy=0;exitX=0.5;exitY=1;exitDx=0;exitDy=0;" edge="1" parent="dNxyNK7c78bLwvsdeMH5-22" source="5WoiTZJnZPbIstmlEn6n-68" target="5WoiTZJnZPbIstmlEn6n-24">
          <mxGeometry relative="1" as="geometry">
            <mxPoint x="290" y="80" as="sourcePoint" />
          </mxGeometry>
        </mxCell>
        <mxCell id="5WoiTZJnZPbIstmlEn6n-30" style="edgeStyle=orthogonalEdgeStyle;rounded=0;orthogonalLoop=1;jettySize=auto;html=1;entryX=0;entryY=0.5;entryDx=0;entryDy=0;" edge="1" parent="dNxyNK7c78bLwvsdeMH5-22" source="5WoiTZJnZPbIstmlEn6n-24" target="5WoiTZJnZPbIstmlEn6n-28">
          <mxGeometry relative="1" as="geometry" />
        </mxCell>
        <mxCell id="5WoiTZJnZPbIstmlEn6n-24" value="Extract query from metadata table" style="rounded=0;whiteSpace=wrap;html=1;fontFamily=Helvetica;fontSize=12;fontColor=#000000;align=center;" vertex="1" parent="dNxyNK7c78bLwvsdeMH5-22">
          <mxGeometry x="250" y="120" width="80" height="60" as="geometry" />
        </mxCell>
        <mxCell id="5WoiTZJnZPbIstmlEn6n-62" style="edgeStyle=orthogonalEdgeStyle;rounded=0;orthogonalLoop=1;jettySize=auto;html=1;entryX=0.5;entryY=0;entryDx=0;entryDy=0;" edge="1" parent="dNxyNK7c78bLwvsdeMH5-22" source="5WoiTZJnZPbIstmlEn6n-28" target="5WoiTZJnZPbIstmlEn6n-61">
          <mxGeometry relative="1" as="geometry" />
        </mxCell>
        <mxCell id="5WoiTZJnZPbIstmlEn6n-91" style="edgeStyle=orthogonalEdgeStyle;rounded=0;orthogonalLoop=1;jettySize=auto;html=1;entryX=0.5;entryY=0;entryDx=0;entryDy=0;" edge="1" parent="dNxyNK7c78bLwvsdeMH5-22" source="5WoiTZJnZPbIstmlEn6n-28" target="5WoiTZJnZPbIstmlEn6n-88">
          <mxGeometry relative="1" as="geometry" />
        </mxCell>
        <mxCell id="5WoiTZJnZPbIstmlEn6n-28" value="Mandatory&amp;nbsp;&lt;div&gt;Fields available?&amp;nbsp;&lt;/div&gt;" style="rhombus;whiteSpace=wrap;html=1;fontFamily=Helvetica;fontSize=12;fontColor=#000000;align=center;" vertex="1" parent="dNxyNK7c78bLwvsdeMH5-22">
          <mxGeometry x="400" y="20" width="110" height="70" as="geometry" />
        </mxCell>
        <mxCell id="5WoiTZJnZPbIstmlEn6n-82" style="edgeStyle=orthogonalEdgeStyle;rounded=0;orthogonalLoop=1;jettySize=auto;html=1;exitX=1;exitY=0.5;exitDx=0;exitDy=0;entryX=0;entryY=0.5;entryDx=0;entryDy=0;" edge="1" parent="dNxyNK7c78bLwvsdeMH5-22" source="5WoiTZJnZPbIstmlEn6n-34" target="5WoiTZJnZPbIstmlEn6n-56">
          <mxGeometry relative="1" as="geometry" />
        </mxCell>
        <mxCell id="5WoiTZJnZPbIstmlEn6n-34" value="Execute Query from the metadata table" style="rounded=0;whiteSpace=wrap;html=1;fontFamily=Helvetica;fontSize=12;fontColor=#000000;align=center;" vertex="1" parent="dNxyNK7c78bLwvsdeMH5-22">
          <mxGeometry x="310" y="330" width="80" height="60" as="geometry" />
        </mxCell>
        <mxCell id="5WoiTZJnZPbIstmlEn6n-105" style="edgeStyle=orthogonalEdgeStyle;rounded=0;orthogonalLoop=1;jettySize=auto;html=1;exitX=0.5;exitY=1;exitDx=0;exitDy=0;entryX=0.5;entryY=0;entryDx=0;entryDy=0;" edge="1" parent="dNxyNK7c78bLwvsdeMH5-22" source="5WoiTZJnZPbIstmlEn6n-56" target="5WoiTZJnZPbIstmlEn6n-58">
          <mxGeometry relative="1" as="geometry" />
        </mxCell>
        <mxCell id="5WoiTZJnZPbIstmlEn6n-56" value="Create File with the query output" style="rounded=0;whiteSpace=wrap;html=1;fontFamily=Helvetica;fontSize=12;fontColor=#000000;align=center;" vertex="1" parent="dNxyNK7c78bLwvsdeMH5-22">
          <mxGeometry x="420" y="330" width="80" height="60" as="geometry" />
        </mxCell>
        <mxCell id="5WoiTZJnZPbIstmlEn6n-106" style="edgeStyle=orthogonalEdgeStyle;rounded=0;orthogonalLoop=1;jettySize=auto;html=1;exitX=0.5;exitY=1;exitDx=0;exitDy=0;entryX=0.5;entryY=0;entryDx=0;entryDy=0;" edge="1" parent="dNxyNK7c78bLwvsdeMH5-22" source="5WoiTZJnZPbIstmlEn6n-58" target="5WoiTZJnZPbIstmlEn6n-65">
          <mxGeometry relative="1" as="geometry" />
        </mxCell>
        <mxCell id="5WoiTZJnZPbIstmlEn6n-58" value="Store in S3" style="rounded=0;whiteSpace=wrap;html=1;fontFamily=Helvetica;fontSize=12;fontColor=#000000;align=center;" vertex="1" parent="dNxyNK7c78bLwvsdeMH5-22">
          <mxGeometry x="420" y="420" width="80" height="60" as="geometry" />
        </mxCell>
        <mxCell id="5WoiTZJnZPbIstmlEn6n-76" style="edgeStyle=orthogonalEdgeStyle;rounded=0;orthogonalLoop=1;jettySize=auto;html=1;exitX=0.5;exitY=1;exitDx=0;exitDy=0;entryX=0.5;entryY=0;entryDx=0;entryDy=0;" edge="1" parent="dNxyNK7c78bLwvsdeMH5-22" source="5WoiTZJnZPbIstmlEn6n-61" target="5WoiTZJnZPbIstmlEn6n-64">
          <mxGeometry relative="1" as="geometry" />
        </mxCell>
        <mxCell id="5WoiTZJnZPbIstmlEn6n-77" value="No" style="edgeLabel;html=1;align=center;verticalAlign=middle;resizable=0;points=[];" vertex="1" connectable="0" parent="5WoiTZJnZPbIstmlEn6n-76">
          <mxGeometry x="-0.2356" y="-2" relative="1" as="geometry">
            <mxPoint as="offset" />
          </mxGeometry>
        </mxCell>
        <mxCell id="5WoiTZJnZPbIstmlEn6n-78" style="edgeStyle=orthogonalEdgeStyle;rounded=0;orthogonalLoop=1;jettySize=auto;html=1;exitX=1;exitY=0.5;exitDx=0;exitDy=0;entryX=0;entryY=0.5;entryDx=0;entryDy=0;" edge="1" parent="dNxyNK7c78bLwvsdeMH5-22" source="5WoiTZJnZPbIstmlEn6n-61" target="5WoiTZJnZPbIstmlEn6n-69">
          <mxGeometry relative="1" as="geometry" />
        </mxCell>
        <mxCell id="5WoiTZJnZPbIstmlEn6n-79" value="Yes" style="edgeLabel;html=1;align=center;verticalAlign=middle;resizable=0;points=[];" vertex="1" connectable="0" parent="5WoiTZJnZPbIstmlEn6n-78">
          <mxGeometry x="0.1385" y="1" relative="1" as="geometry">
            <mxPoint as="offset" />
          </mxGeometry>
        </mxCell>
        <mxCell id="5WoiTZJnZPbIstmlEn6n-61" value="isPII = Y" style="rhombus;whiteSpace=wrap;html=1;fontFamily=Helvetica;fontSize=12;fontColor=#000000;align=center;" vertex="1" parent="dNxyNK7c78bLwvsdeMH5-22">
          <mxGeometry x="405" y="130" width="100" height="55" as="geometry" />
        </mxCell>
        <mxCell id="5WoiTZJnZPbIstmlEn6n-81" style="edgeStyle=orthogonalEdgeStyle;rounded=0;orthogonalLoop=1;jettySize=auto;html=1;entryX=0.5;entryY=0;entryDx=0;entryDy=0;" edge="1" parent="dNxyNK7c78bLwvsdeMH5-22" source="5WoiTZJnZPbIstmlEn6n-64" target="5WoiTZJnZPbIstmlEn6n-34">
          <mxGeometry relative="1" as="geometry" />
        </mxCell>
        <mxCell id="5WoiTZJnZPbIstmlEn6n-64" value="isExecution&lt;div&gt;&amp;nbsp;time &amp;lt; 90 Min&lt;/div&gt;" style="rhombus;whiteSpace=wrap;html=1;fontFamily=Helvetica;fontSize=12;fontColor=#000000;align=center;" vertex="1" parent="dNxyNK7c78bLwvsdeMH5-22">
          <mxGeometry x="405" y="230" width="100" height="55" as="geometry" />
        </mxCell>
        <mxCell id="5WoiTZJnZPbIstmlEn6n-98" style="edgeStyle=orthogonalEdgeStyle;rounded=0;orthogonalLoop=1;jettySize=auto;html=1;" edge="1" parent="dNxyNK7c78bLwvsdeMH5-22" source="5WoiTZJnZPbIstmlEn6n-65">
          <mxGeometry relative="1" as="geometry">
            <mxPoint x="460" y="640" as="targetPoint" />
          </mxGeometry>
        </mxCell>
        <mxCell id="5WoiTZJnZPbIstmlEn6n-65" value="Log counts, send email to user email, support and business" style="rounded=0;whiteSpace=wrap;html=1;fontFamily=Helvetica;fontSize=12;fontColor=#000000;align=center;" vertex="1" parent="dNxyNK7c78bLwvsdeMH5-22">
          <mxGeometry x="410" y="520" width="100" height="60" as="geometry" />
        </mxCell>
        <mxCell id="5WoiTZJnZPbIstmlEn6n-67" value="Stop" style="ellipse;shape=doubleEllipse;whiteSpace=wrap;html=1;aspect=fixed;" vertex="1" parent="dNxyNK7c78bLwvsdeMH5-22">
          <mxGeometry x="440" y="640" width="40" height="40" as="geometry" />
        </mxCell>
        <mxCell id="5WoiTZJnZPbIstmlEn6n-68" value="Start" style="ellipse;shape=doubleEllipse;whiteSpace=wrap;html=1;aspect=fixed;" vertex="1" parent="dNxyNK7c78bLwvsdeMH5-22">
          <mxGeometry x="270" y="30" width="40" height="40" as="geometry" />
        </mxCell>
        <mxCell id="5WoiTZJnZPbIstmlEn6n-87" style="edgeStyle=orthogonalEdgeStyle;rounded=0;orthogonalLoop=1;jettySize=auto;html=1;" edge="1" parent="dNxyNK7c78bLwvsdeMH5-22" source="5WoiTZJnZPbIstmlEn6n-69" target="5WoiTZJnZPbIstmlEn6n-64">
          <mxGeometry relative="1" as="geometry">
            <Array as="points">
              <mxPoint x="620" y="210" />
              <mxPoint x="455" y="210" />
            </Array>
          </mxGeometry>
        </mxCell>
        <mxCell id="5WoiTZJnZPbIstmlEn6n-97" value="Yes" style="edgeLabel;html=1;align=center;verticalAlign=middle;resizable=0;points=[];" vertex="1" connectable="0" parent="5WoiTZJnZPbIstmlEn6n-87">
          <mxGeometry x="0.1162" y="-4" relative="1" as="geometry">
            <mxPoint as="offset" />
          </mxGeometry>
        </mxCell>
        <mxCell id="5WoiTZJnZPbIstmlEn6n-92" style="edgeStyle=orthogonalEdgeStyle;rounded=0;orthogonalLoop=1;jettySize=auto;html=1;exitX=1;exitY=0.5;exitDx=0;exitDy=0;entryX=0;entryY=0.5;entryDx=0;entryDy=0;" edge="1" parent="dNxyNK7c78bLwvsdeMH5-22" source="5WoiTZJnZPbIstmlEn6n-69" target="5WoiTZJnZPbIstmlEn6n-88">
          <mxGeometry relative="1" as="geometry" />
        </mxCell>
        <mxCell id="5WoiTZJnZPbIstmlEn6n-95" value="No" style="edgeLabel;html=1;align=center;verticalAlign=middle;resizable=0;points=[];" vertex="1" connectable="0" parent="5WoiTZJnZPbIstmlEn6n-92">
          <mxGeometry x="-0.3956" relative="1" as="geometry">
            <mxPoint as="offset" />
          </mxGeometry>
        </mxCell>
        <mxCell id="5WoiTZJnZPbIstmlEn6n-69" value="business&lt;div&gt;Approval = Y&lt;/div&gt;" style="rhombus;whiteSpace=wrap;html=1;fontFamily=Helvetica;fontSize=12;fontColor=#000000;align=center;" vertex="1" parent="dNxyNK7c78bLwvsdeMH5-22">
          <mxGeometry x="570" y="130" width="100" height="55" as="geometry" />
        </mxCell>
        <mxCell id="5WoiTZJnZPbIstmlEn6n-93" style="edgeStyle=orthogonalEdgeStyle;rounded=0;orthogonalLoop=1;jettySize=auto;html=1;exitX=0.5;exitY=1;exitDx=0;exitDy=0;entryX=0.5;entryY=0;entryDx=0;entryDy=0;" edge="1" parent="dNxyNK7c78bLwvsdeMH5-22" source="5WoiTZJnZPbIstmlEn6n-88" target="5WoiTZJnZPbIstmlEn6n-67">
          <mxGeometry relative="1" as="geometry">
            <Array as="points">
              <mxPoint x="760" y="600" />
              <mxPoint x="460" y="600" />
            </Array>
          </mxGeometry>
        </mxCell>
        <mxCell id="5WoiTZJnZPbIstmlEn6n-88" value="Log Missing information to the user" style="rounded=0;whiteSpace=wrap;html=1;fontFamily=Helvetica;fontSize=12;fontColor=#000000;align=center;" vertex="1" parent="dNxyNK7c78bLwvsdeMH5-22">
          <mxGeometry x="720" y="130" width="80" height="60" as="geometry" />
        </mxCell>
        <mxCell id="5WoiTZJnZPbIstmlEn6n-1" value="HIP SFTP" style="swimlane;html=1;startSize=20;horizontal=0;" vertex="1" parent="dNxyNK7c78bLwvsdeMH5-22">
          <mxGeometry y="710" width="1010" height="120" as="geometry" />
        </mxCell>
        <mxCell id="5WoiTZJnZPbIstmlEn6n-6" value="&lt;b&gt;Integration&lt;/b&gt;" style="rounded=0;whiteSpace=wrap;html=1;direction=south;horizontal=0;" vertex="1" parent="5WoiTZJnZPbIstmlEn6n-1">
          <mxGeometry x="-20" width="20" height="120" as="geometry" />
        </mxCell>
        <mxCell id="5WoiTZJnZPbIstmlEn6n-112" style="edgeStyle=orthogonalEdgeStyle;rounded=0;orthogonalLoop=1;jettySize=auto;html=1;exitX=1;exitY=0.5;exitDx=0;exitDy=0;entryX=0;entryY=0.5;entryDx=0;entryDy=0;" edge="1" parent="5WoiTZJnZPbIstmlEn6n-1" source="5WoiTZJnZPbIstmlEn6n-107" target="5WoiTZJnZPbIstmlEn6n-108">
          <mxGeometry relative="1" as="geometry" />
        </mxCell>
        <mxCell id="5WoiTZJnZPbIstmlEn6n-107" value="Read File from S3" style="rounded=0;whiteSpace=wrap;html=1;fontFamily=Helvetica;fontSize=12;fontColor=#000000;align=center;" vertex="1" parent="5WoiTZJnZPbIstmlEn6n-1">
          <mxGeometry x="140" y="30" width="80" height="60" as="geometry" />
        </mxCell>
        <mxCell id="5WoiTZJnZPbIstmlEn6n-108" value="Export to Liveramp" style="rounded=0;whiteSpace=wrap;html=1;fontFamily=Helvetica;fontSize=12;fontColor=#000000;align=center;" vertex="1" parent="5WoiTZJnZPbIstmlEn6n-1">
          <mxGeometry x="280" y="30" width="80" height="60" as="geometry" />
        </mxCell>
        <mxCell id="5WoiTZJnZPbIstmlEn6n-7" value="Liveramp" style="swimlane;html=1;startSize=20;horizontal=0;" vertex="1" parent="dNxyNK7c78bLwvsdeMH5-22">
          <mxGeometry y="830" width="1010" height="120" as="geometry" />
        </mxCell>
        <mxCell id="5WoiTZJnZPbIstmlEn6n-11" value="Media Activation" style="rounded=0;whiteSpace=wrap;html=1;direction=south;horizontal=0;fontStyle=1" vertex="1" parent="5WoiTZJnZPbIstmlEn6n-7">
          <mxGeometry x="-20" width="20" height="120" as="geometry" />
        </mxCell>
        <mxCell id="5WoiTZJnZPbIstmlEn6n-114" style="edgeStyle=orthogonalEdgeStyle;rounded=0;orthogonalLoop=1;jettySize=auto;html=1;exitX=1;exitY=0.5;exitDx=0;exitDy=0;entryX=0;entryY=0.5;entryDx=0;entryDy=0;" edge="1" parent="5WoiTZJnZPbIstmlEn6n-7" source="5WoiTZJnZPbIstmlEn6n-109" target="5WoiTZJnZPbIstmlEn6n-110">
          <mxGeometry relative="1" as="geometry" />
        </mxCell>
        <mxCell id="5WoiTZJnZPbIstmlEn6n-109" value="File Available in Liveramp" style="rounded=0;whiteSpace=wrap;html=1;fontFamily=Helvetica;fontSize=12;fontColor=#000000;align=center;" vertex="1" parent="5WoiTZJnZPbIstmlEn6n-7">
          <mxGeometry x="280" y="30" width="80" height="60" as="geometry" />
        </mxCell>
        <mxCell id="5WoiTZJnZPbIstmlEn6n-110" value="Use file data for Media activations" style="rounded=0;whiteSpace=wrap;html=1;fontFamily=Helvetica;fontSize=12;fontColor=#000000;align=center;" vertex="1" parent="5WoiTZJnZPbIstmlEn6n-7">
          <mxGeometry x="430" y="30" width="80" height="60" as="geometry" />
        </mxCell>
        <mxCell id="5WoiTZJnZPbIstmlEn6n-111" style="edgeStyle=orthogonalEdgeStyle;rounded=0;orthogonalLoop=1;jettySize=auto;html=1;entryX=-0.045;entryY=0.393;entryDx=0;entryDy=0;entryPerimeter=0;exitX=0.5;exitY=0;exitDx=0;exitDy=0;startArrow=openThin;startFill=0;" edge="1" parent="dNxyNK7c78bLwvsdeMH5-22" source="5WoiTZJnZPbIstmlEn6n-107" target="5WoiTZJnZPbIstmlEn6n-58">
          <mxGeometry relative="1" as="geometry">
            <Array as="points">
              <mxPoint x="180" y="444" />
            </Array>
          </mxGeometry>
        </mxCell>
        <mxCell id="5WoiTZJnZPbIstmlEn6n-113" style="edgeStyle=orthogonalEdgeStyle;rounded=0;orthogonalLoop=1;jettySize=auto;html=1;exitX=0.5;exitY=1;exitDx=0;exitDy=0;entryX=0.5;entryY=0;entryDx=0;entryDy=0;" edge="1" parent="dNxyNK7c78bLwvsdeMH5-22" source="5WoiTZJnZPbIstmlEn6n-108" target="5WoiTZJnZPbIstmlEn6n-109">
          <mxGeometry relative="1" as="geometry" />
        </mxCell>
      </root>
    </mxGraphModel>
  </diagram>
</mxfile>
